# xmcd
#
# Track frame offsets:
#	150
#	11729
#	23397
#	33903
#	47651
#	61605
#	71842
#	84687
#	94103
#	107197
#
# Disc length: 1604 seconds
#
# Revision: 0
# Processed by: cddbd v1.5.2PL0 Copyright (c) Steve Scherf et al.
# Submitted via: EasyCDDAExtractor 4.6.0.1
#
DISCID=7506420a
DTITLE=Johnny Paycheck - Bars, Booze, Blondes
DYEAR=2000
DGENRE=Country
TTITLE0=Meanest Jukebox In Town
TTITLE1=Problem Solvin' Doctor
TTITLE2=Two Candles, One Diner And A Bottle Too Long....
TTITLE3=The Pint Of No Return
TTITLE4=Heaven For Angels Unaware
TTITLE5=I Drop More Than I Drink
TTITLE6=We're The Kind Of People
TTITLE7=Don't You Say Nothin' At All
TTITLE8=Fools Hall Of Fame
TTITLE9=Tell Me Your Troubles
EXTD=
EXTT0=
EXTT1=
EXTT2=
EXTT3=
EXTT4=
EXTT5=
EXTT6=
EXTT7=
EXTT8=
EXTT9=
PLAYORDER=
